<svg xmlns="http://www.w3.org/2000/svg" version="1.1" xmlns:xlink="http://www.w3.org/1999/xlink" width="512" height="512" x="0" y="0" viewBox="0 0 344.233 202.567" style="enable-background:new 0 0 512 512" xml:space="preserve" class=""><g><path d="M296.427 124.761c16.542 0 30 13.458 30 30s-13.458 30-30 30c-16.541 0-30-13.458-30-30 0-8.573 3.621-16.313 9.408-21.785l-8.534-16.112c-11.355 8.74-18.679 22.46-18.679 37.897 0 26.403 21.403 47.807 47.806 47.807s47.807-21.404 47.807-47.807c0-26.402-21.403-47.806-47.807-47.806-5.238 0-10.275.855-14.991 2.412l8.53 16.104c2.081-.46 4.241-.71 6.46-.71zM75.918 144.295c.301.806.564 1.629.796 2.466h18.219a47.442 47.442 0 0 0-4.251-13.148z" fill="#87cd6f" opacity="1" data-original="#000000" class=""></path><path d="M47.806 184.761c-16.541 0-30-13.458-30-30s13.459-30 30-30c7.076 0 13.584 2.469 18.719 6.582l14.77-10.687c-8.626-8.471-20.444-13.702-33.489-13.702C21.403 106.954 0 128.358 0 154.761s21.403 47.807 47.806 47.807c23.676 0 43.319-17.214 47.127-39.806H76.714c-3.511 12.668-15.137 21.999-28.908 21.999z" fill="#87cd6f" opacity="1" data-original="#000000" class=""></path><path d="M44.876 150.71a4.999 4.999 0 0 0 2.931 9.05h60.334l.923 3 .939 3.052a13.583 13.583 0 0 0 12.982 9.588h39.572l66.246-49.261c.297-.375.63-.724 1-1.038l18.137-15.411h-34.687v-3.05h38.277l5.546-4.712h-60.342v-3.05h63.849v.071l.431-.366 30.995 58.517a5 5 0 1 0 8.837-4.681l-30.816-58.18 3.366-.055 36.011-.594a2.977 2.977 0 0 0 2.91-2.648l.626-5.636a2.98 2.98 0 0 0-.28-1.628L292.827 42.77 253.437.672a2.122 2.122 0 0 0-2.411-.489l-5.632 2.503a2.122 2.122 0 0 0-1.01 2.938l16.106 30.199-12.336 10.708-2.326 2.019-8.583-16.205a5.005 5.005 0 0 0-3.075-2.476l-16.294-4.547a5 5 0 1 0-2.687 9.632l14.225 3.97 6.72 12.688h-22.128l-39.78-10.397a9.732 9.732 0 0 0-8.485 1.771L134.09 67.91a19.24 19.24 0 0 1-11.289 4.114L88.4 73.122a12.206 12.206 0 0 1-10.185-4.896c-1.569-2.105-3.483-4.555-5.364-6.915a25.123 25.123 0 0 0-20.109-9.475l-40.726.747a2.289 2.289 0 0 0-2.244 2.174l-.328 6.557a2.29 2.29 0 0 0 1.162 2.108l82.136 46.295.668 2.173.932 3.029zM287.395 46.812l17.053 35.621s-16.737-8.968-21.726-19.453c-4.99-10.484 4.673-16.168 4.673-16.168zM63.246 149.761l34.203-24.747.932 3.029 5.76 18.719.923 3H63.246z" fill="#87cd6f" opacity="1" data-original="#000000" class=""></path><path d="M201.839 175.401a2.64 2.64 0 0 0 1.815-.722l21.277-20.108a3.277 3.277 0 0 0 1.022-2.198l1.067-18.676-56.085 41.704z" fill="#87cd6f" opacity="1" data-original="#000000" class=""></path></g></svg>